<?xml version="1.0" standalone="no"?>
<!DOCTYPE svg PUBLIC "-//W3C//DTD SVG 20010904//EN"
 "http://www.w3.org/TR/2001/REC-SVG-20010904/DTD/svg10.dtd">
<svg version="1.0" xmlns="http://www.w3.org/2000/svg"
 width="853.000000pt" height="1280.000000pt" viewBox="0 0 853.000000 1280.000000"
 preserveAspectRatio="xMidYMid meet">
<g transform="translate(0.000000,1280.000000) scale(0.100000,-0.100000)"
fill="#000000" stroke="none">
<path d="M4125 10903 c-350 -23 -729 -118 -1015 -254 -573 -274 -976 -741
-1145 -1330 -76 -261 -105 -489 -105 -804 0 -312 27 -522 102 -790 81 -293
190 -497 534 -1007 85 -126 154 -230 154 -232 0 -1 -45 -48 -101 -102 -490
-481 -758 -1007 -851 -1674 -20 -148 -17 -596 5 -740 46 -291 111 -508 221
-735 252 -521 704 -948 1255 -1187 74 -32 149 -69 166 -82 16 -12 41 -29 55
-36 23 -12 24 -12 11 4 -22 27 -6 29 70 11 66 -17 80 -25 203 -127 108 -89
145 -114 210 -139 43 -16 85 -29 94 -27 9 2 -33 43 -106 103 -67 55 -122 106
-122 114 0 21 108 5 145 -22 17 -11 94 -75 173 -141 141 -117 145 -119 213
-131 38 -7 69 -9 69 -6 0 4 -70 64 -155 134 -85 70 -155 132 -155 137 0 6 26
10 58 10 l57 0 188 -155 188 -155 62 0 c51 1 59 3 46 13 -124 97 -329 273
-329 282 0 12 76 25 99 17 5 -2 94 -73 198 -157 l188 -155 58 0 c31 0 57 2 57
4 0 2 -81 70 -180 151 -99 81 -180 153 -180 160 0 16 86 30 103 17 7 -5 98
-79 204 -165 199 -163 206 -167 272 -148 22 6 6 22 -164 161 -104 85 -190 160
-192 167 -5 13 71 38 91 29 6 -2 103 -79 214 -170 198 -162 205 -166 240 -160
21 4 41 10 45 14 5 4 -79 78 -185 165 -107 87 -193 165 -193 174 0 11 13 19
42 25 l41 8 210 -171 c116 -94 218 -171 229 -171 10 1 31 6 47 13 l28 12 -206
168 c-113 92 -206 172 -206 176 0 5 18 16 41 25 38 15 42 15 64 -1 13 -10 111
-89 219 -176 l195 -159 36 12 c19 6 37 15 39 19 3 4 -90 83 -205 176 -115 93
-209 173 -209 177 0 10 55 38 75 38 9 0 113 -79 232 -174 214 -174 216 -175
246 -163 17 7 32 18 34 24 2 6 -85 83 -194 171 -109 87 -204 166 -211 174 -11
14 -9 19 14 37 15 12 34 21 42 21 8 0 114 -79 234 -177 l219 -176 35 17 c20 9
34 20 32 25 -2 5 -99 86 -215 180 -117 94 -213 176 -213 181 0 11 49 50 64 50
6 0 109 -79 228 -175 120 -96 223 -175 230 -175 17 0 58 28 58 40 0 4 -97 85
-215 180 -118 95 -215 178 -215 185 0 21 58 59 73 47 7 -5 104 -82 217 -172
113 -90 210 -167 217 -172 13 -11 76 30 67 43 -2 5 -104 87 -224 184 -121 96
-220 177 -220 180 0 9 55 55 66 55 6 0 108 -77 225 -171 118 -94 220 -174 227
-176 16 -7 64 36 56 49 -3 5 -105 88 -225 184 -189 150 -218 177 -210 192 15
29 39 45 59 40 10 -3 116 -83 236 -178 l217 -172 25 23 c13 12 24 27 23 33 0
6 -95 85 -210 176 -116 91 -217 172 -225 181 -13 14 -12 19 7 42 11 15 28 27
38 27 9 0 117 -80 240 -177 l224 -176 24 27 c12 15 23 30 23 34 -1 4 -102 86
-225 182 -123 96 -224 182 -224 190 -1 24 34 62 52 59 9 -2 117 -82 238 -178
l222 -175 23 29 c17 21 20 33 13 42 -6 7 -109 90 -230 184 -120 95 -219 178
-219 184 0 16 38 65 50 65 5 0 105 -75 222 -167 117 -91 219 -171 227 -177 10
-8 18 -5 32 13 11 13 19 29 19 36 0 7 -101 92 -225 189 -124 97 -225 183 -225
191 0 27 23 65 40 65 9 0 114 -76 231 -168 118 -92 220 -171 227 -176 8 -4 18
6 29 29 16 33 16 38 2 48 -123 92 -449 353 -449 359 0 5 7 25 15 44 11 26 19
34 31 30 9 -3 114 -83 235 -177 120 -94 223 -168 228 -165 5 3 14 19 19 35 13
36 29 20 -238 226 -113 88 -208 163 -211 168 -9 13 13 78 28 84 7 3 115 -75
240 -172 l228 -177 13 32 c7 18 11 38 8 45 -2 7 -104 91 -226 186 -122 94
-224 178 -227 186 -8 22 11 78 27 80 8 2 113 -74 234 -167 120 -94 222 -170
226 -170 9 0 20 36 19 65 0 14 -64 69 -215 185 -118 91 -222 173 -231 182 -18
21 -10 86 12 94 9 4 105 -64 237 -165 208 -160 223 -170 231 -149 20 56 11 65
-223 246 -124 95 -227 180 -228 188 -7 29 9 84 23 84 8 0 111 -75 230 -166
119 -92 218 -164 221 -161 3 2 6 23 7 46 l2 41 -225 173 -225 173 -3 43 c-2
24 -1 50 2 58 8 20 10 18 254 -169 107 -81 198 -148 203 -148 5 0 9 20 9 44
l0 45 -230 177 -231 176 3 52 c2 31 8 51 15 51 9 0 159 -110 431 -318 9 -7 12
2 12 41 l0 51 -226 173 c-125 95 -228 177 -229 183 -12 40 -12 97 0 102 8 3
103 -63 219 -151 113 -86 207 -156 210 -156 9 0 7 83 -2 96 -4 6 -104 84 -222
174 -118 89 -218 165 -222 169 -3 3 -9 32 -13 64 -6 45 -4 57 6 57 8 0 106
-70 218 -155 112 -85 206 -154 208 -152 7 8 -19 108 -31 120 -7 6 -106 82
-219 167 -215 162 -217 163 -233 253 -4 25 -3 37 5 37 6 0 101 -68 211 -150
137 -103 200 -145 199 -133 0 10 -8 39 -17 65 -16 43 -31 57 -212 194 -107 80
-204 155 -216 166 -16 14 -54 114 -54 143 0 16 39 -9 207 -135 102 -77 188
-138 190 -136 2 2 -10 35 -27 72 l-31 69 -200 150 c-189 141 -202 153 -225
204 -32 72 -39 101 -25 101 7 0 74 -46 149 -103 75 -57 150 -112 167 -123 l29
-19 -38 70 c-21 39 -48 81 -59 94 -12 13 -99 81 -192 151 -166 124 -172 129
-218 209 -27 46 -47 89 -45 97 2 11 40 -12 123 -75 66 -49 122 -88 124 -86 5
6 -99 135 -163 203 -27 29 -98 89 -158 134 -91 68 -127 102 -210 207 -55 69
-95 127 -89 129 6 2 79 -47 162 -109 l150 -112 30 30 30 29 -230 172 c-127 94
-231 176 -231 181 0 10 57 61 68 61 4 -1 110 -77 236 -170 126 -94 234 -170
240 -170 18 1 59 36 55 48 -2 5 -103 83 -224 172 -123 90 -221 170 -223 180
-3 16 43 60 63 60 4 0 108 -75 232 -166 123 -91 230 -168 238 -170 7 -3 22 8
34 25 l22 30 -173 128 c-95 71 -196 145 -224 166 -77 55 -80 60 -53 96 13 17
30 31 38 31 9 0 117 -74 241 -165 123 -91 229 -165 235 -165 6 0 18 13 28 29
21 35 34 22 -230 215 -111 81 -207 153 -213 161 -9 11 -7 22 10 50 12 19 26
35 32 35 5 0 114 -77 241 -170 l232 -170 17 22 c10 13 18 30 18 40 0 10 -88
81 -230 184 -127 93 -230 175 -230 184 0 8 9 30 20 48 l20 33 33 -23 c17 -12
124 -89 236 -171 202 -147 205 -148 217 -125 28 50 23 56 -216 228 -132 95
-229 172 -230 181 0 30 22 79 36 79 8 0 114 -72 235 -161 129 -93 227 -158
235 -155 13 5 15 14 18 60 1 8 -102 90 -229 181 -126 92 -231 173 -233 181 -6
23 18 84 33 84 7 0 112 -72 234 -160 122 -88 223 -160 226 -160 7 0 24 73 19
81 -3 5 -109 84 -236 176 l-230 167 6 45 c3 25 10 49 15 54 4 4 106 -62 226
-148 120 -86 224 -159 231 -162 11 -4 14 6 14 41 l0 46 -92 68 c-51 37 -155
112 -230 166 -128 91 -138 100 -138 129 0 42 10 77 22 77 5 0 107 -70 226
-155 l217 -155 8 27 c15 56 4 67 -227 232 -123 88 -226 168 -230 176 -9 24 -7
78 4 95 8 12 16 10 52 -16 24 -17 121 -86 216 -153 95 -68 175 -121 178 -118
3 2 1 26 -3 53 l-8 48 -220 157 c-120 86 -222 165 -226 175 -10 26 -11 102 -1
108 4 2 99 -61 211 -140 112 -80 206 -143 209 -140 3 3 -1 29 -9 58 l-14 53
-215 153 c-190 135 -216 157 -227 190 -13 40 -17 102 -7 102 4 0 92 -61 197
-135 105 -74 192 -133 194 -131 7 7 -39 111 -57 131 -11 11 -102 79 -204 150
l-185 130 -31 74 c-18 40 -28 77 -23 82 5 5 78 -40 163 -100 85 -60 156 -108
158 -106 6 5 -18 46 -64 112 -36 51 -72 81 -202 173 -154 109 -158 112 -214
201 -32 50 -58 95 -58 100 0 13 24 11 40 -3 8 -7 4 0 -10 15 -14 16 -47 45
-73 65 -27 20 -76 71 -110 112 -34 41 -105 118 -157 171 -392 395 -852 622
-1372 678 -89 10 -351 12 -473 4z m487 -1670 c258 -187 252 -180 284 -328 12
-55 17 -126 18 -225 0 -170 -17 -248 -89 -397 -52 -106 -180 -283 -205 -283
-36 0 -350 302 -350 336 0 20 10 14 165 -100 71 -53 131 -93 133 -88 1 4 -8
33 -20 65 -23 57 -26 60 -223 205 -170 125 -203 154 -222 192 -31 63 -39 100
-21 100 8 0 101 -65 208 -144 107 -79 198 -141 201 -137 4 3 4 26 0 51 l-6 44
-218 161 c-120 89 -223 168 -228 176 -15 24 -11 99 6 99 8 0 107 -68 220 -150
113 -83 211 -153 218 -156 9 -3 17 8 24 31 l11 36 -56 44 c-31 24 -136 102
-232 173 -168 123 -175 130 -173 161 0 19 8 40 16 49 14 13 40 -3 252 -158
185 -135 239 -170 246 -159 26 39 30 51 21 62 -6 7 -110 84 -231 172 -121 88
-220 166 -221 174 0 19 39 61 57 61 7 0 115 -74 239 -165 124 -91 232 -165
238 -165 7 0 23 11 36 25 23 25 23 26 4 39 -203 144 -430 316 -432 328 -3 17
64 50 86 43 7 -3 117 -80 244 -172z m1 141 c68 -35 129 -95 113 -111 -7 -7
-166 106 -166 118 0 13 17 11 53 -7z m-660 -4096 c101 -78 458 -426 512 -499
83 -112 162 -278 202 -429 34 -128 44 -381 19 -480 -57 -229 -231 -394 -445
-420 -93 -12 -117 -5 -133 41 -7 20 -74 80 -223 199 -205 164 -215 173 -234
226 -21 55 -26 84 -15 84 4 0 97 -72 207 -160 110 -88 202 -159 204 -157 2 2
-2 27 -8 56 l-11 52 -224 180 c-137 110 -226 189 -229 202 -12 55 -10 82 6 81
8 -1 103 -71 210 -156 107 -85 200 -158 207 -162 9 -5 12 5 12 41 l0 48 -230
183 -230 183 0 44 c0 24 4 47 10 50 5 3 107 -71 226 -166 227 -181 238 -186
232 -113 -3 28 -28 51 -230 213 l-228 181 0 40 c0 27 5 43 15 46 9 4 91 -55
220 -158 231 -183 232 -184 239 -178 2 3 7 21 11 41 l7 36 -231 183 c-189 149
-231 187 -231 207 0 33 19 66 35 59 7 -2 110 -81 228 -175 118 -94 217 -171
220 -171 5 0 27 57 27 70 0 4 -101 87 -225 184 -123 97 -227 181 -230 187 -9
14 15 79 29 79 6 0 112 -79 234 -175 122 -96 225 -175 227 -175 9 0 36 61 30
70 -3 5 -107 88 -230 185 -124 97 -225 183 -225 190 0 8 10 26 23 40 l23 27
224 -176 c124 -97 231 -176 237 -176 7 0 19 13 28 29 l15 30 -226 177 c-124
97 -228 183 -231 190 -6 16 27 63 45 64 7 0 54 -32 105 -72z m-41 -1712 c87
-68 104 -100 37 -65 -50 25 -139 106 -139 126 0 18 7 14 102 -61z"/>
</g>
</svg>
