<?xml version="1.0" encoding="UTF-8" standalone="no"?>
<svg
   xmlns:dc="http://purl.org/dc/elements/1.1/"
   xmlns:cc="http://web.resource.org/cc/"
   xmlns:rdf="http://www.w3.org/1999/02/22-rdf-syntax-ns#"
   xmlns:svg="http://www.w3.org/2000/svg"
   xmlns="http://www.w3.org/2000/svg"
   xmlns:sodipodi="http://sodipodi.sourceforge.net/DTD/sodipodi-0.dtd"
   xmlns:inkscape="http://www.inkscape.org/namespaces/inkscape"
   width="200.000000"
   height="120.000000"
   version="1.1"
   id="svg2"
   sodipodi:version="0.32"
   inkscape:version="0.44"
   sodipodi:docname="Ethniki Odos (neo) number 8.svg"
   sodipodi:docbase="D:\pictures\symbols\Traffic\Greece\numbers SVG">
  <metadata
     id="metadata15">
    <rdf:RDF>
      <cc:Work
         rdf:about="">
        <dc:format>image/svg+xml</dc:format>
        <dc:type
           rdf:resource="http://purl.org/dc/dcmitype/StillImage" />
      </cc:Work>
    </rdf:RDF>
  </metadata>
  <defs
     id="defs13" />
  <sodipodi:namedview
     inkscape:window-height="975"
     inkscape:window-width="1280"
     inkscape:pageshadow="2"
     inkscape:pageopacity="0.0"
     guidetolerance="10.0"
     gridtolerance="10.0"
     objecttolerance="10.0"
     borderopacity="1.0"
     bordercolor="#666666"
     pagecolor="#ffffff"
     id="base"
     inkscape:zoom="3.175"
     inkscape:cx="100"
     inkscape:cy="60"
     inkscape:window-x="-4"
     inkscape:window-y="-4"
     inkscape:current-layer="svg2" />
  <rect
     x="0.000000"
     y="0.000000"
     width="200.000000"
     height="120.000000"
     rx="22.250000"
     ry="22.250000"
     stroke="none"
     fill="#ffcc33"
     id="rect4"
     style="fill:blue" />
  <rect
     x="4.250000"
     y="4.250000"
     width="191.500000"
     height="111.500000"
     rx="18.000000"
     ry="18.000000"
     stroke="none"
     fill="black"
     id="rect6"
     style="fill:white" />
  <rect
     x="11.250000"
     y="11.250000"
     width="177.500000"
     height="97.500000"
     rx="11.000000"
     ry="11.000000"
     stroke="none"
     fill="#ffcc33"
     id="rect8"
     style="fill:blue" />
  <path
     style="font-size:95.67965698px;font-style:normal;font-variant:normal;font-weight:normal;font-stretch:normal;text-align:center;line-height:125%;writing-mode:lr-tb;text-anchor:middle;fill:white;fill-opacity:1;stroke:none;stroke-width:1px;stroke-linecap:butt;stroke-linejoin:miter;stroke-opacity:1;font-family:DIN Medium"
     d="M 120.47745,75.065085 C 120.47741,79.051753 119.55082,82.555643 117.6977,85.576766 C 115.84448,88.597907 113.3139,90.902688 110.10593,92.491116 C 106.89788,94.079548 103.34728,94.873763 99.45409,94.873764 C 95.623145,94.873763 92.095895,94.079548 88.872331,92.491116 C 85.648737,90.902688 83.110364,88.597907 81.257202,85.576766 C 79.404026,82.555643 78.477442,79.051753 78.477447,75.065085 C 78.477442,71.358767 79.357308,68.181907 81.117046,65.534494 C 82.876771,62.887139 85.127047,60.738086 87.867882,59.08733 C 86.310583,58.121848 84.916814,56.961672 83.686569,55.606795 C 82.456304,54.251996 81.475215,52.640207 80.743298,50.771422 C 80.011367,48.902724 79.645405,46.80039 79.645411,44.464413 C 79.645405,41.692497 80.143737,39.13855 81.140406,36.802566 C 82.137061,34.466697 83.546403,32.457799 85.368438,30.775869 C 87.190449,29.094065 89.30057,27.817092 91.698805,26.944945 C 94.097006,26.072933 96.682098,25.636893 99.45409,25.636825 C 102.22603,25.636893 104.81112,26.072933 107.20937,26.944945 C 109.60756,27.817092 111.72547,29.086278 113.5631,30.752509 C 115.40066,32.418867 116.82557,34.427764 117.83785,36.779207 C 118.85004,39.130764 119.35616,41.692497 119.35621,44.464413 C 119.35616,47.859343 118.60088,50.763679 117.09036,53.177429 C 115.57975,55.591261 113.59421,57.561226 111.13374,59.08733 C 113.87452,60.769232 116.11701,62.902712 117.86121,65.487775 C 119.60533,68.072897 120.47741,71.26533 120.47745,75.065085 L 120.47745,75.065085 z M 109.59202,44.744725 C 109.59199,41.754788 108.64204,39.270919 106.74219,37.293111 C 104.84227,35.315417 102.41291,34.326541 99.45409,34.326481 C 96.52637,34.326541 94.120365,35.315417 92.236069,37.293111 C 90.351737,39.270919 89.409579,41.754788 89.409595,44.744725 C 89.409579,47.765906 90.34395,50.241989 92.21271,52.172979 C 94.081433,54.104054 96.495224,55.069571 99.45409,55.069532 C 102.44405,55.069571 104.8812,54.111841 106.76555,52.196339 C 108.64983,50.280921 109.59199,47.797052 109.59202,44.744725 L 109.59202,44.744725 z M 110.61983,74.878211 C 110.61979,71.732515 109.54527,69.053986 107.39625,66.842614 C 105.24716,64.631298 102.59978,63.525626 99.45409,63.525595 C 96.339496,63.525626 93.692112,64.631298 91.511931,66.842614 C 89.331715,69.053986 88.241616,71.732515 88.24163,74.878211 C 88.241616,76.933846 88.739947,78.833733 89.736625,80.577878 C 90.733271,82.32205 92.103682,83.69246 93.84786,84.689113 C 95.591999,85.685785 97.46074,86.184116 99.45409,86.184108 C 102.56863,86.184116 105.20823,85.08623 107.37289,82.890447 C 109.53748,80.694688 110.61979,78.023945 110.61983,74.878211 L 110.61983,74.878211 z "
     id="text1879" />
</svg>
