<svg xmlns="http://www.w3.org/2000/svg" version="1.1" xmlns:xlink="http://www.w3.org/1999/xlink" xmlns:svgjs="http://svgjs.dev/svgjs" width="1000" height="1000" viewBox="0 0 1000 1000"><rect width="1000" height="1000" fill="transparent"></rect><g transform="matrix(0.7,0,0,0.7,149.57576429681365,438.00598819049264)"><svg viewBox="0 0 396 70" data-background-color="#ffffff" preserveAspectRatio="xMidYMid meet" height="176" width="1000" xmlns="http://www.w3.org/2000/svg" xmlns:xlink="http://www.w3.org/1999/xlink"><g id="tight-bounds" transform="matrix(1,0,0,1,0.2399963269924683,0.223873763463871)"><svg viewBox="0 0 395.52 69.55225589022518" height="69.55225589022518" width="395.52"><g><svg viewBox="0 0 498.0611023250809 87.58412529804222" height="69.55225589022518" width="395.52"><g transform="matrix(1,0,0,1,0,12.104607765503669)"><svg viewBox="0 0 395.52 63.374909767034886" height="63.374909767034886" width="395.52"><g><svg viewBox="0 0 395.52 63.374909767034886" height="63.374909767034886" width="395.52"><g><svg viewBox="0 0 395.52 63.374909767034886" height="63.374909767034886" width="395.52"><g transform="matrix(1,0,0,1,0,0)"><svg width="395.52" viewBox="2.4000000953674316 -36.22999954223633 231.86000061035156 36.630001068115234" height="63.374909767034886" data-palette-color="#202046"><g class="undefined-text-0" data-fill-palette-color="primary" id="text-0"><path d="M14.48 0.4L14.48 0.4Q11.8 0.4 9.58-0.31 7.35-1.03 5.75-2.35 4.15-3.68 3.28-5.56 2.4-7.45 2.4-9.8L2.4-9.8Q2.4-13.25 4.2-15.49 6-17.73 9.35-18.68L9.35-18.68Q6.53-19.73 5.09-21.81 3.65-23.9 3.65-26.8L3.65-26.8Q3.65-28.78 4.42-30.5 5.2-32.23 6.63-33.5 8.05-34.77 10.04-35.5 12.03-36.23 14.48-36.23L14.48-36.23Q16.9-36.23 18.9-35.5 20.9-34.77 22.33-33.5 23.75-32.23 24.53-30.5 25.3-28.78 25.3-26.8L25.3-26.8Q25.3-23.9 23.85-21.81 22.4-19.73 19.6-18.68L19.6-18.68Q22.95-17.73 24.75-15.49 26.55-13.25 26.55-9.8L26.55-9.8Q26.55-7.45 25.66-5.56 24.78-3.68 23.19-2.35 21.6-1.03 19.38-0.31 17.15 0.4 14.48 0.4ZM14.48-3.15L14.48-3.15Q16.23-3.15 17.61-3.64 19-4.13 19.96-5.01 20.93-5.9 21.44-7.14 21.95-8.38 21.95-9.88L21.95-9.88Q21.95-11.73 21.34-13.04 20.73-14.35 19.69-15.18 18.65-16 17.3-16.39 15.95-16.78 14.48-16.78L14.48-16.78Q13-16.78 11.65-16.39 10.3-16 9.26-15.18 8.22-14.35 7.61-13.04 7-11.73 7-9.88L7-9.88Q7-8.38 7.51-7.14 8.03-5.9 8.99-5.01 9.95-4.13 11.34-3.64 12.73-3.15 14.48-3.15ZM14.48-20.35L14.48-20.35Q16.23-20.35 17.46-20.89 18.7-21.43 19.48-22.31 20.25-23.2 20.6-24.35 20.95-25.5 20.95-26.73L20.95-26.73Q20.95-27.98 20.54-29.08 20.13-30.18 19.31-31 18.5-31.83 17.29-32.3 16.07-32.77 14.48-32.77L14.48-32.77Q12.88-32.77 11.66-32.3 10.45-31.83 9.64-31 8.83-30.18 8.41-29.08 8-27.98 8-26.73L8-26.73Q8-25.5 8.35-24.35 8.7-23.2 9.47-22.31 10.25-21.43 11.49-20.89 12.73-20.35 14.48-20.35ZM64.4-17.9L64.4-17.9Q64.4-13.88 63.12-10.58 61.85-7.28 59.52-4.93 57.2-2.58 53.95-1.29 50.7 0 46.75 0L46.75 0 33.35 0 33.35-35.83 46.75-35.83Q50.7-35.83 53.95-34.54 57.2-33.25 59.52-30.89 61.85-28.53 63.12-25.23 64.4-21.93 64.4-17.9ZM59.42-17.9L59.42-17.9Q59.42-21.2 58.52-23.8 57.62-26.4 55.97-28.2 54.32-30 51.97-30.95 49.62-31.9 46.75-31.9L46.75-31.9 38.22-31.9 38.22-3.93 46.75-3.93Q49.62-3.93 51.97-4.88 54.32-5.83 55.97-7.61 57.62-9.4 58.52-12 59.42-14.6 59.42-17.9ZM104.27-17.9L104.27-17.9Q104.27-13.88 103-10.51 101.72-7.15 99.39-4.73 97.07-2.3 93.81-0.96 90.55 0.38 86.59 0.38L86.59 0.38Q82.64 0.38 79.39-0.96 76.14-2.3 73.82-4.73 71.49-7.15 70.22-10.51 68.94-13.88 68.94-17.9L68.94-17.9Q68.94-21.93 70.22-25.29 71.49-28.65 73.82-31.09 76.14-33.52 79.39-34.88 82.64-36.23 86.59-36.23L86.59-36.23Q90.55-36.23 93.81-34.88 97.07-33.52 99.39-31.09 101.72-28.65 103-25.29 104.27-21.93 104.27-17.9ZM99.29-17.9L99.29-17.9Q99.29-21.2 98.39-23.83 97.5-26.45 95.84-28.26 94.19-30.08 91.84-31.05 89.5-32.02 86.59-32.02L86.59-32.02Q83.72-32.02 81.37-31.05 79.02-30.08 77.36-28.26 75.69-26.45 74.8-23.83 73.89-21.2 73.89-17.9L73.89-17.9Q73.89-14.6 74.8-11.99 75.69-9.38 77.36-7.56 79.02-5.75 81.37-4.79 83.72-3.83 86.59-3.83L86.59-3.83Q89.5-3.83 91.84-4.79 94.19-5.75 95.84-7.56 97.5-9.38 98.39-11.99 99.29-14.6 99.29-17.9ZM113.39-35.83L113.39-35.83Q114.04-35.83 114.36-35.66 114.67-35.5 115.07-35L115.07-35 135.82-8Q135.74-8.65 135.72-9.26 135.69-9.88 135.69-10.45L135.69-10.45 135.69-35.83 139.94-35.83 139.94 0 137.49 0Q136.92 0 136.53-0.2 136.14-0.4 135.77-0.88L135.77-0.88 115.04-27.85Q115.09-27.23 115.12-26.63 115.14-26.03 115.14-25.53L115.14-25.53 115.14 0 110.89 0 110.89-35.83 113.39-35.83ZM163.84-35.83L178.17 0 174.42 0Q173.77 0 173.37-0.33 172.97-0.65 172.77-1.15L172.77-1.15 169.42-9.8 153.34-9.8 149.99-1.15Q149.81-0.7 149.39-0.35 148.97 0 148.34 0L148.34 0 144.59 0 158.91-35.83 163.84-35.83ZM160.31-27.85L154.69-13.3 168.06-13.3 162.44-27.88Q161.89-29.23 161.37-31.25L161.37-31.25Q161.09-30.23 160.83-29.36 160.56-28.5 160.31-27.85L160.31-27.85ZM179.04-35.83L207.09-35.83 207.09-31.75 195.51-31.75 195.51 0 190.66 0 190.66-31.75 179.04-31.75 179.04-35.83ZM212.19-35.83L234.26-35.83 234.26-31.88 217.06-31.88 217.06-19.98 230.99-19.98 230.99-16.18 217.06-16.18 217.06-3.95 234.26-3.95 234.26 0 212.19 0 212.19-35.83Z" fill="#202046" data-fill-palette-color="primary"></path></g></svg></g></svg></g></svg></g></svg></g><g transform="matrix(1,0,0,1,410.4812951981625,0)"><svg viewBox="0 0 87.57980712691842 87.58412529804222" height="87.58412529804222" width="87.57980712691842"><g><svg xmlns="http://www.w3.org/2000/svg" xmlns:xlink="http://www.w3.org/1999/xlink" version="1.1" x="0" y="0" viewBox="0.35832977294921875 0.3587226867675781 89.28325653076172 89.28765869140625" enable-background="new 0 0 90 90" xml:space="preserve" height="87.58412529804222" width="87.57980712691842" class="icon-icon-0" data-fill-palette-color="accent" id="icon-0"><polygon points="57.928,58.169 57.875,76.027 45.397,63.548 45.397,45.639 " fill="#fe633d" data-fill-palette-color="accent"></polygon><polygon points="76.027,57.875 58.475,57.927 45.826,45.279 63.432,45.279 " fill="#fe633d" data-fill-palette-color="accent"></polygon><polygon points="76.027,32.125 63.432,44.721 45.707,44.721 58.355,32.073 " fill="#fe633d" data-fill-palette-color="accent"></polygon><polygon points="44.838,45.59 44.838,63.314 32.125,76.027 32.074,58.355 " fill="#fe633d" data-fill-palette-color="accent"></polygon><polygon points="57.928,31.712 45.397,44.243 45.397,26.452 57.875,13.974 " fill="#fe633d" data-fill-palette-color="accent"></polygon><polygon points="44.838,26.687 44.838,44.291 32.074,31.526 32.125,13.974 " fill="#fe633d" data-fill-palette-color="accent"></polygon><polygon points="44.479,44.721 26.569,44.721 13.974,32.125 31.832,32.073 " fill="#fe633d" data-fill-palette-color="accent"></polygon><polygon points="44.36,45.279 31.712,57.927 13.974,57.875 26.569,45.279 " fill="#fe633d" data-fill-palette-color="accent"></polygon><rect x="58.48" y="58.48" width="18.049" height="18.049" fill="#fe633d" data-fill-palette-color="accent"></rect><polygon points="76.527,13.474 76.527,31.516 58.914,31.516 58.912,31.518 58.484,31.516 58.484,13.474 " fill="#fe633d" data-fill-palette-color="accent"></polygon><polygon points="31.518,30.971 31.516,31.516 13.474,31.516 13.474,13.474 31.516,13.474 31.516,30.968 " fill="#fe633d" data-fill-palette-color="accent"></polygon><rect x="13.471" y="58.48" width="18.05" height="18.049" fill="#fe633d" data-fill-palette-color="accent"></rect><rect x="67.864" y="35.981" transform="matrix(0.7071 -0.7071 0.7071 0.7071 -9.3022 67.5465)" width="18.042" height="18.042" fill="#fe633d" data-fill-palette-color="accent"></rect><rect x="35.979" y="4.094" transform="matrix(0.7071 -0.7071 0.7071 0.7071 3.9068 35.6621)" width="18.042" height="18.042" fill="#fe633d" data-fill-palette-color="accent"></rect><rect x="4.095" y="35.98" transform="matrix(0.7071 -0.7071 0.7071 0.7071 -27.9787 22.4536)" width="18.041" height="18.041" fill="#fe633d" data-fill-palette-color="accent"></rect><rect x="35.98" y="67.865" transform="matrix(0.7071 -0.7071 0.7071 0.7071 -41.1877 54.3437)" width="18.04" height="18.041" fill="#fe633d" data-fill-palette-color="accent"></rect></svg></g></svg></g></svg></g><defs></defs></svg><rect width="395.52" height="1000" fill="none" stroke="none" visibility="hidden"></rect></g></svg></g></svg>