
<svg version="1.1"
	 id="svg2" sodipodi:docname="Gold_medal_icon.svg" inkscape:version="0.47 r22583" xmlns:dc="http://purl.org/dc/elements/1.1/" xmlns:cc="http://creativecommons.org/ns#" xmlns:rdf="http://www.w3.org/1999/02/22-rdf-syntax-ns#" xmlns:svg="http://www.w3.org/2000/svg" xmlns:sodipodi="http://sodipodi.sourceforge.net/DTD/sodipodi-0.dtd" xmlns:inkscape="http://www.inkscape.org/namespaces/inkscape"
	 xmlns="http://www.w3.org/2000/svg" xmlns:xlink="http://www.w3.org/1999/xlink" x="0px" y="0px" width="16px" height="16px"
	 viewBox="0 0 16 16" enable-background="new 0 0 16 16" xml:space="preserve">
<defs>
	
	
		<inkscape:perspective  id="perspective16" inkscape:persp3d-origin="8 : 5.3333333 : 1" inkscape:vp_x="0 : 8 : 1" sodipodi:type="inkscape:persp3d" inkscape:vp_z="16 : 8 : 1" inkscape:vp_y="0 : 1000 : 0">
		</inkscape:perspective>
</defs>
<sodipodi:namedview  id="namedview10" inkscape:current-layer="svg2" inkscape:window-y="-8" inkscape:window-x="-8" inkscape:window-height="850" inkscape:window-width="1440" inkscape:pageshadow="2" inkscape:pageopacity="0" inkscape:window-maximized="1" inkscape:cy="8" inkscape:cx="-0.10169492" inkscape:zoom="14.75" showgrid="false" borderopacity="1" bordercolor="#666666" pagecolor="#ffffff" guidetolerance="10" gridtolerance="10" objecttolerance="10">
	</sodipodi:namedview>
<circle id="circle6" sodipodi:cx="8" sodipodi:cy="8" sodipodi:rx="7.5" sodipodi:ry="7.5" fill="#000080" stroke="#000080" cx="8" cy="8" r="7.5">
</circle>
<g enable-background="new    ">
	<path fill="#FFFFFF" d="M4.667,9.807c0-1.093,0.63-1.85,1.625-2.283V7.48C5.409,7.033,4.975,6.29,4.975,5.492
		c0-1.541,1.387-2.563,3.208-2.563c2.129,0,3.011,1.232,3.011,2.339c0,0.784-0.42,1.555-1.316,2.003v0.042
		c0.882,0.337,1.667,1.093,1.667,2.27c0,1.653-1.387,2.76-3.502,2.76C5.731,12.342,4.667,11.039,4.667,9.807z M9.373,9.736
		c0-0.799-0.588-1.274-1.428-1.499c-0.701,0.196-1.106,0.7-1.106,1.358c-0.014,0.659,0.49,1.275,1.289,1.275
		C8.883,10.871,9.373,10.381,9.373,9.736z M6.978,5.422c0,0.616,0.561,1.009,1.289,1.232c0.491-0.14,0.924-0.588,0.924-1.162
		c0-0.561-0.322-1.121-1.106-1.121C7.356,4.371,6.978,4.848,6.978,5.422z"/>
</g>
</svg>
