<?xml version="1.0" encoding="utf-8"?>
<!-- Generator: Adobe Illustrator 13.0.2, SVG Export Plug-In . SVG Version: 6.00 Build 14948)  -->
<!DOCTYPE svg PUBLIC "-//W3C//DTD SVG 1.1//EN" "http://www.w3.org/Graphics/SVG/1.1/DTD/svg11.dtd">
<svg version="1.1" id="Ebene_1" xmlns="http://www.w3.org/2000/svg" xmlns:xlink="http://www.w3.org/1999/xlink" x="0px" y="0px"
	 width="14.35px" height="42.88px" viewBox="0 0 14.35 42.88" enable-background="new 0 0 14.35 42.88" xml:space="preserve">
<g>
	<path d="M4.743,20.768c-0.875-0.32-1.523-0.777-1.945-1.371s-0.633-1.305-0.633-2.133c0-1.25,0.449-2.301,1.348-3.152
		s2.094-1.277,3.586-1.277c1.5,0,2.707,0.436,3.621,1.307s1.371,1.932,1.371,3.182c0,0.797-0.209,1.49-0.627,2.08
		s-1.053,1.045-1.904,1.365c1.055,0.344,1.857,0.898,2.408,1.664s0.826,1.68,0.826,2.742c0,1.469-0.52,2.703-1.559,3.703
		s-2.406,1.5-4.102,1.5s-3.063-0.502-4.102-1.506s-1.559-2.256-1.559-3.756c0-1.117,0.283-2.053,0.85-2.807
		S3.696,21.042,4.743,20.768z M3.642,25.127c0,0.602,0.143,1.184,0.428,1.746s0.709,0.998,1.271,1.307s1.168,0.463,1.816,0.463
		c1.008,0,1.84-0.324,2.496-0.973s0.984-1.473,0.984-2.473c0-1.016-0.338-1.855-1.014-2.52s-1.521-0.996-2.537-0.996
		c-0.992,0-1.814,0.328-2.467,0.984S3.642,24.143,3.642,25.127z M4.321,17.194c0,0.813,0.262,1.477,0.785,1.992
		s1.203,0.773,2.039,0.773c0.813,0,1.479-0.256,1.998-0.768s0.779-1.139,0.779-1.881c0-0.773-0.268-1.424-0.803-1.951
		s-1.201-0.791-1.998-0.791c-0.805,0-1.473,0.258-2.004,0.773S4.321,16.475,4.321,17.194z"/>
</g>
</svg>
